<svg xmlns="http://www.w3.org/2000/svg" xmlns:svg="http://www.w3.org/2000/svg" xmlns:xlink="http://www.w3.org/1999/xlink" id="svg2839" width="210mm" height="297mm" version="1.1"><defs id="defs2841"><linearGradient id="linearGradient2963"><stop style="stop-color:#ffecbb;stop-opacity:1" id="stop2965" offset="0"/><stop id="stop2971" offset="1" style="stop-color:#000;stop-opacity:.498039"/></linearGradient><linearGradient id="linearGradient2969" x1="-719.143" x2="-324.219" y1="494.7" y2="968.985" gradientTransform="matrix(1.0512, 0, 0, 1.05137, 651.058, -25.2444)" gradientUnits="userSpaceOnUse" xlink:href="#linearGradient2963"/></defs><metadata id="metadata2844"/><g id="layer1"><rect style="fill:#ada07f;fill-opacity:1" id="rect2959" width="498.571" height="402.525" x="101.429" y="345.219" ry="15.849"/><rect style="fill:#d6cfbd;fill-opacity:1;fill-rule:evenodd;stroke:#000;stroke-width:1.09651px;stroke-linecap:butt;stroke-linejoin:miter;stroke-opacity:1" id="rect2955" width="366.375" height="268.805" x="172.032" y="409.826" ry="24.861"/><path style="fill:url(#linearGradient2969) #000;fill-opacity:1" id="path2961" d="m 111.92284,745.80915 c -1.7443,-0.70488 -4.61634,-3.11878 -6.38231,-5.3642 l -3.21086,-4.08259 0,-189.14299 c 0,-136.34795 0.46823,-190.05871 1.67748,-192.42365 0.92263,-1.80438 3.11889,-4.44845 4.8806,-5.87571 3.00442,-2.43405 17.98923,-2.5971 241.57759,-2.62843 l 238.37448,-0.0334 4.90427,4.38251 4.90429,4.3825 0.39257,189.41161 c 0.43575,210.24489 1.09242,196.30432 -9.4544,200.71175 -4.34407,1.81535 -40.20923,2.12038 -239.80015,2.0394 -129.08065,-0.0523 -236.11926,-0.67193 -237.86356,-1.37681 z m 413.94314,-69.49552 c 4.39946,-2.22093 7.85143,-5.43895 10.06966,-9.38725 l 3.37535,-6.00784 -0.36571,-118.16973 c -0.36124,-116.72035 -0.4037,-118.22058 -3.46195,-122.31682 -4.69144,-6.28374 -10.15101,-9.79936 -17.39001,-11.19809 -8.54594,-1.65125 -316.90144,-1.65125 -325.4474,0 -7.68,1.48394 -13.16379,5.20817 -17.88452,12.146 l -3.40519,5.00442 0.40173,119.03503 c 0.39878,118.15286 0.42505,119.06645 3.54637,123.27494 1.72955,2.33195 5.7842,5.74954 9.01033,7.59462 l 5.8657,3.35471 164.49565,0.0248 164.49566,0.0246 6.69433,-3.3794 z"/><rect style="fill:#191408;fill-opacity:1" id="rect2980" width="63.072" height="39.051" x="499.385" y="744.74" ry="0"/><rect style="fill:#191408;fill-opacity:1" id="rect2980-1" width="63.072" height="39.051" x="130.569" y="744.74" ry="0"/></g></svg>